<?xml version="1.0" encoding="UTF-8"?>
<svg xmlns="http://www.w3.org/2000/svg" viewBox="0 0 1000 980" width="1000" height="980">
<defs>
  <style>
    .bg { fill: #ffffff; }
    .title { fill: #1f2328; font: 700 20px "Segoe UI","PingFang SC","Microsoft YaHei",sans-serif; }
    .sub { fill: #656d76; font: 12px "Segoe UI","PingFang SC","Microsoft YaHei",sans-serif; }
    .n { fill: #1f2328; font: 600 13px "Segoe UI","PingFang SC","Microsoft YaHei",sans-serif; }
    .d { fill: #656d76; font: 11px "Segoe UI","PingFang SC","Microsoft YaHei",sans-serif; }
    .edge { fill: #656d76; font: 11px "Segoe UI","PingFang SC","Microsoft YaHei",sans-serif; }
    .arr { stroke: #4a90d9; stroke-width: 1.6; fill: none; marker-end: url(#ah); }
    .arr-side { stroke: #9ca3af; stroke-width: 1.2; fill: none; marker-end: url(#ahg); }
  </style>
  <marker id="ah" viewBox="0 0 10 10" refX="9" refY="5" markerWidth="7" markerHeight="7" orient="auto">
    <path d="M 0 0 L 10 5 L 0 10 z" fill="#4a90d9"/>
  </marker>
  <marker id="ahg" viewBox="0 0 10 10" refX="9" refY="5" markerWidth="7" markerHeight="7" orient="auto">
    <path d="M 0 0 L 10 5 L 0 10 z" fill="#9ca3af"/>
  </marker>
</defs>
<rect class="bg" width="1000" height="980"/>
<text class="title" x="40" y="36">订单利润计算 L2 · compute</text>
<text class="sub" x="40" y="56">主路径 Amazon SYSTEM；对照 TiktokFullSettlementExpense</text>
<g><rect x="80" y="76" width="240" height="56" rx="8" fill="#f8fbff" stroke="#4a90d9" stroke-width="1.6"/>
<text class="n" fill="#1f2328" x="200.0" y="98" text-anchor="middle">S5.1 payload 含头程</text>
<text class="d" x="200.0" y="118" text-anchor="middle">WmsMatchFeeRequest</text>
</g>
<path class="arr" d="M 200 132 L 200 164"/>
<g><polygon points="200,164.0 268.0,200 200,236.0 132.0,200" fill="#ffffff" stroke="#f5a623" stroke-width="1.6"/>
<text class="n" fill="#d97706" x="200" y="196" text-anchor="middle">S5.2 跨关账?</text>
<text class="d" x="200" y="214" text-anchor="middle">settlement_time</text>
</g>
<text class="edge" x="276" y="184">是</text>
<text class="edge" x="208" y="256">否</text>
<g><rect x="430" y="172" width="240" height="56" rx="8" fill="#ffffff" stroke="#e85d4c" stroke-width="1.6"/>
<text class="n" fill="#dc2626" x="550.0" y="194" text-anchor="middle">S5.3 旁路 rollup</text>
<text class="d" x="550.0" y="214" text-anchor="middle">order_profit_rollup</text>
</g>
<path class="arr-side" d="M 268 200 L 430 200"/>
<path class="arr" d="M 200 236 L 200 276"/>
<g><polygon points="200,276.0 268.0,312 200,348.0 132.0,312" fill="#ffffff" stroke="#f5a623" stroke-width="1.6"/>
<text class="n" fill="#d97706" x="200" y="308" text-anchor="middle">S5.4 can 能算?</text>
<text class="d" x="200" y="326" text-anchor="middle">币种/付款/SKU</text>
</g>
<text class="edge" x="276" y="296">否</text>
<text class="edge" x="208" y="368">是</text>
<g><rect x="430" y="284" width="240" height="56" rx="8" fill="#ffffff" stroke="#e85d4c" stroke-width="1.6"/>
<text class="n" fill="#dc2626" x="550.0" y="306" text-anchor="middle">S5.5 释放锁返回</text>
<text class="d" x="550.0" y="326" text-anchor="middle">RedLock::releaseLock</text>
</g>
<path class="arr-side" d="M 268 312 L 430 312"/>
<path class="arr" d="M 200 348 L 200 396"/>
<g><rect x="80" y="396" width="240" height="56" rx="8" fill="#f8fbff" stroke="#4a90d9" stroke-width="1.6"/>
<text class="n" fill="#1f2328" x="200.0" y="418" text-anchor="middle">S5.6 before 清费用</text>
<text class="d" x="200.0" y="438" text-anchor="middle">OrderExpenseRestEvent</text>
</g>
<path class="arr" d="M 200 452 L 200 484"/>
<g><polygon points="200,484.0 268.0,520 200,556.0 132.0,520" fill="#ffffff" stroke="#f5a623" stroke-width="1.6"/>
<text class="n" fill="#d97706" x="200" y="516" text-anchor="middle">S6.1 MANUAL/SYSTEM?</text>
<text class="d" x="200" y="534" text-anchor="middle">build_order_type</text>
</g>
<text class="edge" x="208" y="576">SYSTEM</text>
<text class="edge" x="276" y="504">MANUAL</text>
<path class="arr" d="M 200 556 L 200 596"/>
<g><rect x="80" y="596" width="240" height="56" rx="8" fill="#f8fbff" stroke="#4a90d9" stroke-width="1.6"/>
<text class="n" fill="#1f2328" x="200.0" y="618" text-anchor="middle">S6.2 AmazonSalesRevenue</text>
<text class="d" x="200.0" y="638" text-anchor="middle">销售收入</text>
</g>
<path class="arr" d="M 200 652 L 200 676"/>
<g><rect x="80" y="676" width="240" height="56" rx="8" fill="#f8fbff" stroke="#4a90d9" stroke-width="1.6"/>
<text class="n" fill="#1f2328" x="200.0" y="698" text-anchor="middle">S6.3 AmazonFreightRevenue</text>
<text class="d" x="200.0" y="718" text-anchor="middle">运费收入</text>
</g>
<path class="arr" d="M 200 732 L 200 756"/>
<g><rect x="80" y="756" width="240" height="56" rx="8" fill="#f8fbff" stroke="#4a90d9" stroke-width="1.6"/>
<text class="n" fill="#1f2328" x="200.0" y="778" text-anchor="middle">S6.4 EstimatedTradeCommission</text>
<text class="d" x="200.0" y="798" text-anchor="middle">预估佣金</text>
</g>
<path class="arr" d="M 200 812 L 200 836"/>
<g><rect x="80" y="836" width="240" height="56" rx="8" fill="#f8fbff" stroke="#4a90d9" stroke-width="1.6"/>
<text class="n" fill="#1f2328" x="200.0" y="858" text-anchor="middle">S6.5 PurchaseCost + HeadFreight</text>
<text class="d" x="200.0" y="878" text-anchor="middle">采购/头程</text>
</g>
<path class="arr" d="M 320 864 L 430 864"/>
<g><rect x="430" y="836" width="240" height="56" rx="8" fill="#f8fbff" stroke="#4a90d9" stroke-width="1.6"/>
<text class="n" fill="#1f2328" x="550.0" y="858" text-anchor="middle">S6.6 其它算子 +N</text>
<text class="d" x="550.0" y="878" text-anchor="middle">公共段约 23 个</text>
</g>
<g><rect x="430" y="596" width="240" height="56" rx="8" fill="#f8fbff" stroke="#4a90d9" stroke-width="1.6"/>
<text class="n" fill="#1f2328" x="550.0" y="618" text-anchor="middle">S6.1b ManualSalesRevenue</text>
<text class="d" x="550.0" y="638" text-anchor="middle">手工单收入</text>
</g>
<path class="arr-side" d="M 268 520 L 430 520 L 430 596"/>
<g><rect x="700" y="596" width="260" height="56" rx="8" fill="#f8fbff" stroke="#4a90d9" stroke-width="1.6"/>
<text class="n" fill="#1f2328" x="830.0" y="618" text-anchor="middle">S6.c TiktokFullSettlement</text>
<text class="d" x="830.0" y="638" text-anchor="middle">Tiktok SYSTEM 结算算子</text>
</g>
<path class="arr-side" d="M 670 624 L 700 624"/>
</svg>
